<svg xmlns="http://www.w3.org/2000/svg" xmlns:xlink="http://www.w3.org/1999/xlink" aria-hidden="true" role="img" class="iconify iconify--logos" width="35.93" height="32" preserveAspectRatio="xMidYMid meet" viewBox="0 0 256 228"><path fill="#00D8FF" d="M210.483 73.824a171.49 171.49 0 0 0-8.24-2.597c.465-1.9.893-3.777 1.273-5.621c6.238-30.281 2.16-54.676-11.769-62.708c-13.355-7.7-35.196.329-57.254 19.526a171.23 171.23 0 0 0-6.375 5.848a155.866 155.866 0 0 0-4.241-3.917C100.759 3.829 77.587-4.822 63.673 3.233c-13.31 7.681-17.134 30.697-11.733 59.187a170.974 170.974 0 0 0 1.892 8.48c-3.28.932-6.445 1.924-9.474 2.98C17.309 83.498 0 98.307 0 113.668c0 15.865 18.582 31.778 46.812 41.427a145.52 145.52 0 0 0 6.921 2.165a167.467 167.467 0 0 0-2.01 9.138c-5.074 27.75-.933 50.591 12.288 58.266c13.587 7.899 36.604-.22 59.033-19.856a144.314 144.314 0 0 0 5.348-4.919a147.06 147.06 0 0 0 6.802 6.24c21.758 18.722 43.246 26.282 56.54 18.586c14.657-8.458 19.025-33.174 13.47-62.166a133.683 133.683 0 0 0-1.441-6.509a144.04 144.04 0 0 0 8.171-2.477c29.347-9.723 48.443-25.44 48.443-41.529c0-15.417-17.867-30.326-47.819-40.072ZM72.89 186.792c-10.084 8.676-19.366 13.232-25.085 14.404c-5.255 1.073-9.437.396-11.954-1.058c-6.093-3.545-8.81-17.053-4.642-38.99c.55-3.013 1.218-6.027 2.002-9.04c10.657 2.184 22.207 3.773 34.283 4.74c6.89 10.185 13.962 19.437 21.084 27.51a132.703 132.703 0 0 1-4.688 4.434Zm-20.91-61.482a240.024 240.024 0 0 1-2.38-8.627c2.333.46 4.723.887 7.162 1.278c2.439.391 4.902.746 7.386 1.065a235.886 235.886 0 0 1 5.378-8.374a239.57 239.57 0 0 1 5.631-8.114c-5.85.437-11.512 1.06-16.94 1.856a236.313 236.313 0 0 1 5.763 12.916Zm87.868 36.157c-2.394 4.143-4.82 8.137-7.253 11.97c-4.483.201-9.063.306-13.71.306c-4.626 0-9.182-.1-13.64-.295a213.938 213.938 0 0 1-7.29-11.92a214.154 214.154 0 0 1-6.264-12.365c1.917-4.177 4.007-8.304 6.257-12.35a212.977 212.977 0 0 1 7.274-11.936c4.463-.208 9.03-.315 13.663-.315c4.654 0 9.23.108 13.698.317a211.71 211.71 0 0 1 7.27 11.908c2.245 4.034 4.33 8.156 6.247 12.319a209.02 209.02 0 0 1-6.252 12.361Zm10.545-4.139c1.888 4.234 3.595 8.392 5.108 12.448a190.618 190.618 0 0 1-13.043 2.052a237.53 237.53 0 0 0 5.613-8.314a237.84 237.84 0 0 0 5.322-8.186Zm-31.408-65.543c3.117 3.37 6.168 6.916 9.118 10.607c-3.029-.142-6.105-.216-9.222-.216c-3.087 0-6.136.071-9.14.21c2.948-3.666 5.978-7.206 9.244-10.601ZM104.63 141.85a189.856 189.856 0 0 1-12.9-2.038c1.497-4.024 3.198-8.178 5.088-12.408a238.447 238.447 0 0 0 5.34 8.172a237.72 237.72 0 0 0 5.472 8.274Zm-7.693-35.024a188.466 188.466 0 0 1-5.04-12.308a188.135 188.135 0 0 1 12.748-1.954a234.163 234.163 0 0 0-5.353 8.152a233.478 233.478 0 0 0-5.355 8.11Zm7.106-27.688a195.348 195.348 0 0 1 13.327-2.022c2.396 3.814 4.79 7.788 7.159 11.898a213.938 213.938 0 0 1 6.263 12.332a212.153 212.153 0 0 1-6.25 12.367a213.535 213.535 0 0 1-7.276 11.945c-4.45.205-9.005.31-13.646.31c-4.642 0-9.199-.102-13.647-.303a211.863 211.863 0 0 1-7.263-11.923a212.123 212.123 0 0 1-6.258-12.347c1.915-4.173 4.004-8.295 6.253-12.345a211.456 211.456 0 0 1 7.27-11.912Zm87.94-24.878c4.614 2.672 6.634 15.217 3.988 33.448a151.044 151.044 0 0 1-1.645 7.622c-10.646-2.183-22.202-3.757-34.285-4.714c-6.887-10.169-13.95-19.4-21.054-27.455a146.07 146.07 0 0 1 5.131-4.706c19.945-17.192 38.578-23.96 47.865-18.195Zm-16.083 107.204c10.084-8.676 19.366-13.232 25.085-14.404c5.255-1.073 9.437-.396 11.954 1.058c6.093 3.545 8.81 17.053 4.642 38.99c-.55 3.013-1.218 6.027-2.002 9.04c-10.657-2.184-22.207-3.773-34.283-4.74c-6.89-10.185-13.962-19.437-21.084-27.51a132.703 132.703 0 0 1 4.688-4.434Zm20.91 61.482a240.024 240.024 0 0 1 2.38 8.627c-2.333-.46-4.723-.887-7.162-1.278c-2.439-.391-4.902-.746-7.386-1.065a235.886 235.886 0 0 1-5.378 8.374a239.57 239.57 0 0 1-5.631 8.114c5.85-.437 11.512-1.06 16.94-1.856a236.313 236.313 0 0 1-5.763-12.916Zm-87.868-36.157c2.394-4.143 4.82-8.137 7.253-11.97c4.483-.201 9.063-.306 13.71-.306c4.626 0 9.182.1 13.64.295a213.938 213.938 0 0 1 7.29 11.92a214.154 214.154 0 0 1 6.264 12.365c-1.917 4.177-4.007 8.304-6.257 12.35a212.977 212.977 0 0 1-7.274 11.936c-4.463.208-9.03.315-13.663.315c-4.654 0-9.23-.108-13.698-.317a211.71 211.71 0 0 1-7.27-11.908c-2.245-4.034-4.33-8.156-6.247-12.319a209.02 209.02 0 0 1 6.252-12.361Zm-10.545 4.139c-1.888-4.234-3.595-8.392-5.108-12.448a190.618 190.618 0 0 1 13.043-2.052a237.53 237.53 0 0 0-5.613 8.314a237.84 237.84 0 0 0-5.322 8.186Zm31.408 65.543c-3.117-3.37-6.168-6.916-9.118-10.607c3.029.142 6.105.216 9.222.216c3.087 0 6.136-.071 9.14-.21c-2.948 3.666-5.978 7.206-9.244 10.601Zm33.267-45.432a189.856 189.856 0 0 1 12.9 2.038c-1.497 4.024-3.198 8.178-5.088 12.408a238.447 238.447 0 0 0-5.34-8.172a237.72 237.72 0 0 0-5.472-8.274Zm7.693 35.024a188.466 188.466 0 0 1 5.04 12.308a188.135 188.135 0 0 1-12.748 1.954a234.163 234.163 0 0 0 5.353-8.152a233.478 233.478 0 0 0 5.355-8.11Zm-7.106 27.688a195.348 195.348 0 0 1-13.327 2.022c-2.396-3.814-4.79-7.788-7.159-11.898a213.938 213.938 0 0 1-6.263-12.332a212.153 212.153 0 0 1 6.25-12.367a213.535 213.535 0 0 1 7.276-11.945c4.45-.205 9.005-.31 13.646-.31c4.642 0 9.199.102 13.647.303a211.863 211.863 0 0 1 7.263 11.923a212.123 212.123 0 0 1 6.258 12.347c-1.915 4.173-4.004 8.295-6.253 12.345a211.456 211.456 0 0 1-7.27 11.912Zm-87.94 24.878c-4.614-2.672-6.634-15.217-3.988-33.448a151.044 151.044 0 0 1 1.645-7.622c10.646 2.183 22.202 3.757 34.285 4.714c6.887 10.169 13.95 19.4 21.054 27.455a146.07 146.07 0 0 1-5.131 4.706c-19.945 17.192-38.578 23.96-47.865 18.195Z"/><path fill="#fff" d="M128.2 140.8c7.6 0 13.8-6.2 13.8-13.8s-6.2-13.8-13.8-13.8s-13.8 6.2-13.8 13.8s6.2 13.8 13.8 13.8Z"/></svg>
